#!OML:ASF F:\VICON\USERDATA\INSTALL\rory3\rory3.ASF
:FULLY-SPECIFIED
:DEGREES
34
root 0.9313587007189899 18.016531056409956 -4.304174488259411 -4.493747694642093 -3.596942576011913 0.02513194599026125
lfemur -13.058370441747375 -3.76181665719277 -24.808835745487187
ltibia 34.5296877817133
lfoot -10.759694158216387 -1.6028097831389831
ltoes -3.1213155245844826
rfemur -12.352161871279645 2.324939297538646 22.52265633349703
rtibia 67.41215536937989
rfoot 5.475145419100471 -3.8896481713258884
rtoes 4.516780173157977
lowerback 10.62101440440189 1.0589866530846137 -0.7967125585204422
upperback 0.3832265297816017 1.0756558379857162 -0.006855882338998143
thorax -5.428566282247634 0.761428939500773 0.3695260849390257
lowerneck -15.869915363544665 -2.869410660210596 -1.7299760444422243
upperneck 23.151764368244127 -3.698543929362279 -0.1377350383831103
head 10.073524743972586 -1.730825699282432 -0.12323289492645155
lclavicle -1.3879666865570471e-15 -1.844199112902385e-15
lhumerus -32.10274420366494 6.12620388602638 80.06492424929212
lradius 25.296758354682247
lwrist 3.2638471621926217
lhand -27.202512851212326 23.154038261628084
lfingers 7.125019999999999
lthumb -0.6099019165455863 52.99858126487483
rclavicle -1.388972611337197e-15 -1.845133837462156e-15
rhumerus -27.479523791952285 -20.31924315535251 -80.01723055770242
rradius 28.24763854357673
rwrist 6.1931673599156065
rhand -18.313017446190553 22.554234206966022
rfingers 7.125019999999999
rthumb 7.988852336148818 -7.381097140803166
35
root 0.9317630552597305 18.008625138064374 -3.6407854464360003 -4.553640088881321 -3.0496975833953046 0.39239225708269787
lfemur -9.691972540560771 -3.7725915853683616 -25.45769294252578
ltibia 33.890095263243545
lfoot -11.384707414941069 -0.1565165161415618
ltoes -3.488628162442582
rfemur -16.94773316663161 1.4517632191149197 22.05415239627364
rtibia 63.276765097401025
rfoot 1.5513308685320908 -4.950574595750992
rtoes 4.315654543570072
lowerback 10.913418630075736 0.6716572502490299 -1.1249239499589154
upperback 0.5043575336365849 0.5154341762941852 0.23668796220312904
thorax -5.435058223663681 0.5085037808022728 0.9738626527673326
lowerneck -15.965730144716204 -2.788733664619628 -1.844192284268648
upperneck 23.075297577318313 -3.607010669417592 -0.10227740470131069
head 10.061870096162256 -1.6644996866950408 -0.08331047710437467
lclavicle -1.387967028077471e-15 -1.8441994302496997e-15
lhumerus -30.297664757036674 4.104234289949513 80.65494616655604
lradius 26.30154135845329
lwrist 3.9125961690884754
lhand -27.46476662606952 23.024963071586768
lfingers 7.125019999999999
lthumb -0.8037143041644156 52.98840603478367
rclavicle -1.3889728934630276e-15 -1.8451340996188777e-15
rhumerus -28.20068211303894 -21.607223813391414 -79.70407608459277
rradius 28.19100933954387
rwrist 6.469084966627615
rhand -18.24968653724494 21.91847648105272
rfingers 7.125019999999999
rthumb 8.127540632765875 -7.827607807241726
36
root 0.9248399880206766 17.994924801164498 -2.8821241143545517 -4.472331065279472 -2.3404162363497605 0.6855230650838706
lfemur -7.054519893631544 -3.9281496530219586 -26.10223932168949
ltibia 33.50813671766666
lfoot -12.18199141584825 0.9680121099508385
ltoes -3.235903445208988
rfemur -20.985686192779177 0.664707526200591 21.67676783255681
rtibia 57.01790396394104
rfoot -1.943614187423222 -5.1380340354755525
rtoes 4.332299439567489
lowerback 11.117498472809306 0.271920842733394 -1.4398977919744782
upperback 0.550834616022449 -0.07283843398770484 0.5075841523891047
thorax -5.500226830730249 0.26668776324835536 1.3730304123633177
lowerneck -16.002636421957124 -2.7160578262738673 -1.862948495058925
upperneck 23.034655538394954 -3.605952771583484 -0.09424879358392996
head 10.003737331850163 -1.6355386728720616 -0.0642504634881679
lclavicle -1.3879675083006161e-15 -1.844199876482238e-15
lhumerus -28.57163748240762 1.9564036708495653 81.11641910532916
lradius 27.226579974652577
lwrist 4.508498853369268
lhand -27.44076214669412 23.45516110015714
lfingers 7.125019999999999
lthumb -0.6862982778846227 53.51198020159309
rclavicle -1.3889727129782267e-15 -1.8451339319089453e-15
rhumerus -29.100714796266008 -22.424737077287638 -79.16013458567814
rradius 28.205890060195475
rwrist 6.18274158886892
rhand -18.099326122742525 22.35828987663151
rfingers 7.125019999999999
rthumb 8.283713267051805 -7.4094856457944225
37
root 0.9061839223370918 17.98035249401388 -2.0614623978731004 -4.206088855120409 -1.582476327552087 0.9712310522768779
lfemur -4.995019906452774 -4.066733429457777 -26.82872560039904
ltibia 33.08077077026094
lfoot -12.849245514434557 1.7887629311397837
ltoes -2.8052825325157604
rfemur -24.09681445328452 0.3907877568953815 21.459397914281713
rtibia 49.40496108226612
rfoot -4.674697892803103 -5.20064027103748
rtoes 4.542391653409925
lowerback 11.153134653847824 -0.12555304440154935 -1.8195812452286657
upperback 0.5713741094610724 -0.5404220363039751 0.7860758897275832
thorax -5.393005337394528 0.0364034422446228 1.925049656160802
lowerneck -16.00885475976625 -2.765541245777422 -1.9832128616449158
upperneck 23.0486461054291 -3.663346123154475 0.0640883326672334
head 9.893639209056944 -1.6524314071725963 -0.056695253403804796
lclavicle -1.3879681232811836e-15 -1.844200447933952e-15
lhumerus -26.971824263523377 0.12182331298343341 81.30477344287675
lradius 28.220774737317626
lwrist 5.346132441906123
lhand -27.415203852954406 23.527316105913936
lfingers 7.125019999999999
lthumb -0.688492770505003 53.570671697019854
rclavicle -1.3889728643208095e-15 -1.8451340725393702e-15
rhumerus -29.902357111343257 -22.947096692233306 -78.62754486818797
rradius 27.912273530349008
rwrist 5.966662751833403
rhand -18.27543048560774 22.46865771136365
rfingers 7.125019999999999
rthumb 7.987891881313653 -7.404451548011139
38
root 0.879621477930776 17.975117152929794 -1.286892143344195 -3.7333937029105613 -0.8957971265919146 1.1143182054076082
lfemur -2.588384994574901 -3.766231346944022 -27.4757391613567
ltibia 31.735304091391605
lfoot -12.900690606719959 2.1555589072685493
ltoes -3.1038794899686075
rfemur -26.610932859173253 0.6060947610568266 20.956001731365863
rtibia 41.69112701208373
rfoot -6.748935761127321 -5.972822576043862
rtoes 4.5159720420387135
lowerback 10.984855827681974 -0.42752194113085856 -2.1933446522716538
upperback 0.640975037245806 -0.9944907282667861 0.9844565540004802
thorax -5.2249368502705025 -0.1940920704141918 2.3936944941265557
lowerneck -15.864631670526116 -2.8326539944951126 -2.065661201396663
upperneck 22.998177735860384 -3.806711825720071 0.17649874164823504
head 9.81362328293443 -1.6869841145944917 -0.012461352435946177
lclavicle -1.3879675776827647e-15 -1.844199940953458e-15
lhumerus -25.594647944325473 -1.1618398298352393 81.19766853615779
lradius 29.214750449038473
lwrist 6.10529228063856
lhand -27.293548851382763 23.786719632400434
lfingers 7.125019999999999
lthumb -0.5278077998794629 53.91504444061853
rclavicle -1.3889733264632267e-15 -1.8451345019709493e-15
rhumerus -30.688626738460798 -23.470598695533187 -78.04475560022344
rradius 27.38333066599202
rwrist 5.803175202346163
rhand -18.311035364749035 22.829121219889785
rfingers 7.125019999999999
rthumb 7.973604551346542 -7.0799584568326495
39
root 0.8496994262218367 17.974345534625325 -0.23992362627049602 -3.076576343596831 -0.1519466216650256 1.3833943456734046
lfemur 0.2648217946215663 -3.322744661421802 -27.75769552541331
ltibia 29.51004028727379
lfoot -12.5678271325028 2.010373880324889
ltoes -3.2337684207135577
rfemur -27.971735663226454 1.4179687957412042 20.35448107692891
rtibia 34.91843970426506
rfoot -7.646040355220299 -7.377721120398606
rtoes 3.927723259023611
lowerback 10.66180202250875 -0.6850341670779594 -2.6760636621188727
upperback 0.5992403765552755 -1.4122318226130046 1.0961367374745574
thorax -5.057621048613604 -0.36348871176617986 2.887531356605132
lowerneck -15.849208112241657 -2.8990721913330906 -2.1122679224389818
upperneck 22.963974077749942 -3.8915791781894407 0.30376811316072244
head 9.77542152852411 -1.7117740277650433 0.03120701913314272
lclavicle -1.387968004039326e-15 -1.844200337132136e-15
lhumerus -24.41482262904677 -1.91397629998023 80.98349300217318
lradius 30.016496186931136
lwrist 6.589270212627266
lhand -27.306994326545947 23.808399644972535
lfingers 7.125019999999999
lthumb -0.5089959830834392 54.029301085086615
rclavicle -1.3889736875104527e-15 -1.8451348374629425e-15
rhumerus -31.92166015476266 -23.977561605826924 -77.22540774142459
rradius 26.802873527193892
rwrist 5.86359296623412
rhand -18.29824389489745 22.60156949102069
rfingers 7.125019999999999
rthumb 7.912578788887949 -7.375602156295493
